<svg width="32" height="32" viewBox="0 0 32 32" fill="none" xmlns="http://www.w3.org/2000/svg">
<path d="M11.2 7.2C10.72 7.2 10.4 7.68 10.4 8V12H8.8V8C8.8 7.52 8.48 7.2 8 7.2C7.52 7.2 7.2 7.68 7.2 8V12H5.6V8C5.6 7.52 5.28 7.2 4.8 7.2C4.32 7.2 4 7.68 4 8V13.28C4 14.72 5.12 15.84 6.4 16V27.2C6.4 28.16 7.04 28.8 8 28.8C8.96 28.8 9.6 28.16 9.6 27.2V16C10.88 15.84 12 14.72 12 13.28V8C12 7.68 11.68 7.2 11.2 7.2ZM14.4 8V17.6H16V27.2C16 28.16 16.64 28.8 17.6 28.8C18.56 28.8 19.2 28.16 19.2 27.2V3.2C16.48 3.2 14.4 5.28 14.4 8ZM25.6 6.4C23.36 6.4 21.6 8.8 21.6 11.68C21.44 13.6 22.4 15.36 24 16.48V27.2C24 28.16 24.64 28.8 25.6 28.8C26.56 28.8 27.2 28.16 27.2 27.2V16.48C28.8 15.36 29.76 13.6 29.6 11.68C29.6 8.8 27.84 6.4 25.6 6.4Z" fill="#1E3E3E"/>
</svg>
