<svg width="48" height="68" viewBox="0 0 48 68" fill="none" xmlns="http://www.w3.org/2000/svg">
<path d="M39.05 2.80899C37.4986 4.36036 37.4986 6.87563 39.05 8.427C40.6014 9.97837 43.1166 9.97837 44.668 8.427C46.2194 6.87563 46.2194 4.36036 44.668 2.80899C43.1166 1.25763 40.6014 1.25763 39.05 2.80899Z" fill="#EFEFE0"/>
<path d="M39.05 21.5497C37.4986 23.101 37.4986 25.6163 39.05 27.1677C40.6014 28.719 43.1166 28.719 44.668 27.1677C46.2194 25.6163 46.2194 23.101 44.668 21.5497C43.1166 19.9983 40.6014 19.9983 39.05 21.5497Z" fill="#EFEFE0"/>
<path d="M39.05 40.5613C37.4986 42.1127 37.4986 44.628 39.05 46.1793C40.6014 47.7307 43.1166 47.7307 44.668 46.1793C46.2194 44.628 46.2194 42.1127 44.668 40.5613C43.1166 39.01 40.6014 39.01 39.05 40.5613Z" fill="#EFEFE0"/>
<path d="M39.05 59.573C37.4986 61.1244 37.4986 63.6396 39.05 65.191C40.6014 66.7424 43.1166 66.7424 44.668 65.191C46.2194 63.6396 46.2194 61.1244 44.668 59.573C43.1166 58.0216 40.6014 58.0216 39.05 59.573Z" fill="#EFEFE0"/>
<path d="M20.6324 2.80899C19.0811 4.36036 19.0811 6.87563 20.6324 8.427C22.1838 9.97837 24.6991 9.97837 26.2504 8.427C27.8018 6.87563 27.8018 4.36036 26.2504 2.80899C24.6991 1.25763 22.1838 1.25763 20.6324 2.80899Z" fill="#EFEFE0"/>
<path d="M20.6324 21.5497C19.0811 23.101 19.0811 25.6163 20.6324 27.1677C22.1838 28.719 24.6991 28.719 26.2504 27.1677C27.8018 25.6163 27.8018 23.101 26.2504 21.5497C24.6991 19.9983 22.1838 19.9983 20.6324 21.5497Z" fill="#EFEFE0"/>
<path d="M20.6324 40.5613C19.0811 42.1127 19.0811 44.628 20.6324 46.1793C22.1838 47.7307 24.6991 47.7307 26.2504 46.1793C27.8018 44.628 27.8018 42.1127 26.2504 40.5613C24.6991 39.01 22.1838 39.01 20.6324 40.5613Z" fill="#EFEFE0"/>
<path d="M20.6324 59.573C19.0811 61.1244 19.0811 63.6396 20.6324 65.191C22.1838 66.7424 24.6991 66.7424 26.2504 65.191C27.8018 63.6396 27.8018 61.1244 26.2504 59.573C24.6991 58.0216 22.1838 58.0216 20.6324 59.573Z" fill="#EFEFE0"/>
<path d="M2.80896 2.80899C1.25759 4.36036 1.25759 6.87563 2.80896 8.427C4.36033 9.97837 6.87559 9.97837 8.42696 8.427C9.97833 6.87563 9.97833 4.36036 8.42696 2.80899C6.87559 1.25763 4.36033 1.25763 2.80896 2.80899Z" fill="#EFEFE0"/>
<path d="M2.80896 21.5497C1.25759 23.101 1.25759 25.6163 2.80896 27.1677C4.36033 28.719 6.87559 28.719 8.42696 27.1677C9.97833 25.6163 9.97833 23.101 8.42696 21.5497C6.87559 19.9983 4.36033 19.9983 2.80896 21.5497Z" fill="#EFEFE0"/>
<path d="M2.80896 40.5613C1.25759 42.1127 1.25759 44.628 2.80896 46.1793C4.36033 47.7307 6.87559 47.7307 8.42696 46.1793C9.97833 44.628 9.97833 42.1127 8.42696 40.5613C6.87559 39.01 4.36033 39.01 2.80896 40.5613Z" fill="#EFEFE0"/>
<path d="M2.80896 59.573C1.25759 61.1244 1.25759 63.6396 2.80896 65.191C4.36033 66.7424 6.87559 66.7424 8.42696 65.191C9.97833 63.6396 9.97833 61.1244 8.42696 59.573C6.87559 58.0216 4.36033 58.0216 2.80896 59.573Z" fill="#EFEFE0"/>
</svg>
